<svg>

  <symbol id="flag_UK" xmlns="http://www.w3.org/2000/svg" viewBox="0 0 512.002 512.002"><path d="M503.172 423.725H8.828c-4.875 0-8.828-3.953-8.828-8.828V97.104c0-4.875 3.953-8.828 8.828-8.828h494.345c4.875 0 8.828 3.953 8.828 8.828v317.793c-.001 4.875-3.954 8.828-8.829 8.828z" fill="#41479B"/><path d="M512 97.104c0-4.875-3.953-8.828-8.828-8.828h-39.495l-163.54 107.147V88.276h-88.276v107.147L48.322 88.276H8.828C3.953 88.276 0 92.229 0 97.104v22.831l140.309 91.927H0v88.276h140.309L0 392.066v22.831c0 4.875 3.953 8.828 8.828 8.828h39.495l163.54-107.147v107.147h88.276V316.578l163.54 107.147h39.495c4.875 0 8.828-3.953 8.828-8.828v-22.831l-140.309-91.927H512v-88.276H371.691L512 119.935V97.104z" fill="#F5F5F5"/><g fill="#FF4B55"><path d="M512 229.518H282.483V88.276h-52.966v141.242H0v52.965h229.517v141.242h52.966V282.483H512"/><path d="M178.948 300.138L.25 416.135c.625 4.263 4.14 7.59 8.577 7.59h12.159l190.39-123.586h-32.428v-.001zM346.388 300.138H313.96l190.113 123.404c4.431-.472 7.928-4.09 7.928-8.646v-7.258l-165.613-107.5zM0 106.849l161.779 105.014h32.428L5.143 89.137C2.123 90.54 0 93.555 0 97.104v9.745zM332.566 211.863L511.693 95.586c-.744-4.122-4.184-7.309-8.521-7.309h-12.647L300.138 211.863h32.428z"/></g></symbol>

  <symbol id="flag_RU" xmlns="http://www.w3.org/2000/svg" viewBox="0 0 512.001 512.001"><path d="M512 200.093H0V97.104c0-4.875 3.953-8.828 8.828-8.828h494.345c4.875 0 8.828 3.953 8.828 8.828L512 200.093z" fill="#F5F5F5"/><path d="M503.172 423.725H8.828c-4.875 0-8.828-3.953-8.828-8.828V311.909h512v102.988c0 4.876-3.953 8.828-8.828 8.828z" fill="#FF4B55"/><path fill="#41479B" d="M0 200.091h512v111.81H0z"/></symbol>

  <symbol id="menu_icon" xmlns="http://www.w3.org/2000/svg" viewBox="0 0 433.5 433.5"><path d="M0 293.25h433.5v-51H0v51zm0 102h433.5v-51H0v51zm0-204h433.5v-51H0v51zm0-153v51h433.5v-51H0z"/></symbol>

  <symbol id="edit_icon" xmlns="http://www.w3.org/2000/svg" viewBox="0 0 21.59 21.59"><path d="M18.62 8.37l-.54-1.3s1.26-2.85 1.15-2.96l-1.68-1.6c-.1-.12-2.97 1.2-2.97 1.2l-1.32-.54S12.1.24 11.93.24H9.56c-.16 0-1.24 2.9-1.24 2.9L7 3.66S4.08 2.42 3.96 2.54L2.3 4.18c-.13.1 1.2 2.9 1.2 2.9l-.54 1.3S0 9.54 0 9.7V12c0 .17 2.97 1.22 2.97 1.22l.54 1.3s-1.23 2.85-1.12 2.96l1.67 1.64c.12.12 2.98-1.2 2.98-1.2l1.33.54s1.17 2.9 1.33 2.9h2.36c.16 0 1.24-2.9 1.24-2.9l1.32-.54s2.9 1.24 3.02 1.13l1.68-1.64c.12-.1-1.22-2.9-1.22-2.9l.55-1.3s2.96-1.12 2.96-1.3V9.6c0-.17-2.96-1.23-2.96-1.23zm-4.36 2.42c0 1.84-1.56 3.36-3.46 3.36s-3.47-1.52-3.47-3.4S8.9 7.42 10.8 7.42s3.46 1.53 3.46 3.4z"/></symbol>

  <symbol id="icon_save" xmlns="http://www.w3.org/2000/svg" viewBox="0 0 49 49"><path d="M39.9 0H.5v49h48V8.6L39.9 0zm-4.4 2v14h-24V2h24zm-26 45V28h29v19h-29zm37 0h-6V26h-33v21h-5V2h7v16h28V2h1.6l7.4 7.4V47z"/><path d="M13.5 33h7c.55 0 1-.45 1-1s-.45-1-1-1h-7c-.55 0-1 .45-1 1s.45 1 1 1zm10 2h-10c-.55 0-1 .45-1 1s.45 1 1 1h10c.55 0 1-.45 1-1s-.45-1-1-1zm2.3.3c-.2.18-.3.44-.3.7s.1.52.3.7c.18.2.43.3.7.3.26 0 .52-.1.7-.3.2-.18.3-.44.3-.7s-.1-.52-.3-.7c-.36-.38-1.04-.38-1.4 0zM33.5 4h-6v10h6V4zm-2 8h-2V6h2v6z"/></symbol>

  <symbol id="icon_del" xmlns="http://www.w3.org/2000/svg" viewBox="0 0 59 59"><path d="M52.5 6H38.46c-.1-1.25-.5-3.36-1.82-4.7C35.8.42 34.74 0 33.5 0h-10c-1.25 0-2.3.43-3.14 1.3-1.32 1.34-1.7 3.45-1.82 4.7H6.5c-.55 0-1 .45-1 1s.45 1 1 1h46c.55 0 1-.45 1-1s-.45-1-1-1zM21.8 2.68c.44-.46 1-.68 1.7-.68h10c.7 0 1.26.22 1.7.68.8.82 1.13 2.27 1.25 3.32h-15.9c.1-1.05.44-2.5 1.24-3.32zM10.46 54.02c.03 1.72 1.1 4.98 4.9 4.98h28.28c3.8 0 4.87-3.26 4.9-4.96L50.38 10H8.62l1.84 44.02zM48.3 12l-1.76 41.98c0 .3-.14 3.02-2.9 3.02H15.36c-2.73 0-2.9-2.72-2.9-3.04L10.7 12h37.6z"/><path d="M17.5 54h24c.55 0 1-.45 1-1s-.45-1-1-1h-24c-.55 0-1 .45-1 1s.45 1 1 1zm0-5h24c.55 0 1-.45 1-1s-.45-1-1-1h-24c-.55 0-1 .45-1 1s.45 1 1 1zm0-5h24c.55 0 1-.45 1-1s-.45-1-1-1h-24c-.55 0-1 .45-1 1s.45 1 1 1z"/></symbol>





</svg>