<svg>

  <symbol id="flag_UK" xmlns="http://www.w3.org/2000/svg" viewBox="0 0 512.002 512.002"><path d="M503.172 423.725H8.828c-4.875 0-8.828-3.953-8.828-8.828V97.104c0-4.875 3.953-8.828 8.828-8.828h494.345c4.875 0 8.828 3.953 8.828 8.828v317.793c-.001 4.875-3.954 8.828-8.829 8.828z" fill="#41479B"/><path d="M512 97.104c0-4.875-3.953-8.828-8.828-8.828h-39.495l-163.54 107.147V88.276h-88.276v107.147L48.322 88.276H8.828C3.953 88.276 0 92.229 0 97.104v22.831l140.309 91.927H0v88.276h140.309L0 392.066v22.831c0 4.875 3.953 8.828 8.828 8.828h39.495l163.54-107.147v107.147h88.276V316.578l163.54 107.147h39.495c4.875 0 8.828-3.953 8.828-8.828v-22.831l-140.309-91.927H512v-88.276H371.691L512 119.935V97.104z" fill="#F5F5F5"/><g fill="#FF4B55"><path d="M512 229.518H282.483V88.276h-52.966v141.242H0v52.965h229.517v141.242h52.966V282.483H512"/><path d="M178.948 300.138L.25 416.135c.625 4.263 4.14 7.59 8.577 7.59h12.159l190.39-123.586h-32.428v-.001zM346.388 300.138H313.96l190.113 123.404c4.431-.472 7.928-4.09 7.928-8.646v-7.258l-165.613-107.5zM0 106.849l161.779 105.014h32.428L5.143 89.137C2.123 90.54 0 93.555 0 97.104v9.745zM332.566 211.863L511.693 95.586c-.744-4.122-4.184-7.309-8.521-7.309h-12.647L300.138 211.863h32.428z"/></g></symbol>

  <symbol id="flag_RU" xmlns="http://www.w3.org/2000/svg" viewBox="0 0 512.001 512.001"><path d="M512 200.093H0V97.104c0-4.875 3.953-8.828 8.828-8.828h494.345c4.875 0 8.828 3.953 8.828 8.828L512 200.093z" fill="#F5F5F5"/><path d="M503.172 423.725H8.828c-4.875 0-8.828-3.953-8.828-8.828V311.909h512v102.988c0 4.876-3.953 8.828-8.828 8.828z" fill="#FF4B55"/><path fill="#41479B" d="M0 200.091h512v111.81H0z"/></symbol>

  <symbol id="menu_icon" xmlns="http://www.w3.org/2000/svg" viewBox="0 0 433.5 433.5"><path d="M0 293.25h433.5v-51H0v51zm0 102h433.5v-51H0v51zm0-204h433.5v-51H0v51zm0-153v51h433.5v-51H0z"/></symbol>

  <symbol id="edit_icon" xmlns="http://www.w3.org/2000/svg" viewBox="0 0 21.59 21.59"><path d="M18.62 8.37l-.54-1.3s1.26-2.85 1.15-2.96l-1.68-1.6c-.1-.12-2.97 1.2-2.97 1.2l-1.32-.54S12.1.24 11.93.24H9.56c-.16 0-1.24 2.9-1.24 2.9L7 3.66S4.08 2.42 3.96 2.54L2.3 4.18c-.13.1 1.2 2.9 1.2 2.9l-.54 1.3S0 9.54 0 9.7V12c0 .17 2.97 1.22 2.97 1.22l.54 1.3s-1.23 2.85-1.12 2.96l1.67 1.64c.12.12 2.98-1.2 2.98-1.2l1.33.54s1.17 2.9 1.33 2.9h2.36c.16 0 1.24-2.9 1.24-2.9l1.32-.54s2.9 1.24 3.02 1.13l1.68-1.64c.12-.1-1.22-2.9-1.22-2.9l.55-1.3s2.96-1.12 2.96-1.3V9.6c0-.17-2.96-1.23-2.96-1.23zm-4.36 2.42c0 1.84-1.56 3.36-3.46 3.36s-3.47-1.52-3.47-3.4S8.9 7.42 10.8 7.42s3.46 1.53 3.46 3.4z"/></symbol>

</svg>